<svg xmlns="http://www.w3.org/2000/svg" version="1.1" xmlns:xlink="http://www.w3.org/1999/xlink" xmlns:svgjs="http://svgjs.dev/svgjs" width="1500" height="939" viewBox="0 0 1500 939"><g transform="matrix(1,0,0,1,-0.9090909090909918,-1.5145161290323017)"><svg viewBox="0 0 396 248" data-background-color="#929395" preserveAspectRatio="xMidYMid meet" height="939" width="1500" xmlns="http://www.w3.org/2000/svg" xmlns:xlink="http://www.w3.org/1999/xlink"><g id="tight-bounds" transform="matrix(1,0,0,1,0.2400000000000091,0.4000000000000057)"><svg viewBox="0 0 395.52 247.2" height="247.2" width="395.52"><g><svg></svg></g><g><svg viewBox="0 0 395.52 247.2" height="247.2" width="395.52"><g transform="matrix(1,0,0,1,75.54432,86.43025635101552)"><svg viewBox="0 0 244.43135999999998 74.33948729796897" height="74.33948729796897" width="244.43135999999998"><g><svg viewBox="0 0 244.43135999999998 74.33948729796897" height="74.33948729796897" width="244.43135999999998"><g><svg viewBox="0 0 244.43135999999998 74.33948729796897" height="74.33948729796897" width="244.43135999999998"><g><svg viewBox="0 0 244.43135999999998 74.33948729796897" height="74.33948729796897" width="244.43135999999998"><g id="textblocktransform"><svg viewBox="0 0 244.43135999999998 74.33948729796897" height="74.33948729796897" width="244.43135999999998" id="textblock"><g><svg viewBox="0 0 244.43135999999998 51.411762066420664" height="51.411762066420664" width="244.43135999999998"><g transform="matrix(1,0,0,1,0,0)"><svg width="244.43135999999998" viewBox="1.25 -36.55 176.14 37.05" height="51.411762066420664" data-palette-color="#375a82"><path d="M32.25-34.05L29.5-34.05 29.5 0 22.5 0 5.35-32.35 5.35-0.95 8.1-0.95 8.1 0 1.25 0 1.25-0.95 4-0.95 4-34.05 1.25-34.05 1.25-35 15.05-35 28.15-9.9 28.15-34.05 25.4-34.05 25.4-35 32.25-35 32.25-34.05ZM46.65 0.5Q40.2 0.5 36.97-2.83 33.75-6.15 33.75-12.08 33.75-18 37.37-21.15 41-24.3 46.6-24.3L46.6-24.3Q57.95-24.3 57.5-12.9L57.5-12.9 43.4-12.9 43.4-10.95Q43.4-6.05 44.65-3.55 45.9-1.05 49-1.05L49-1.05Q54.8-1.05 56.6-7.25L56.6-7.25 57.5-7.1Q56.55-3.5 54.07-1.5 51.6 0.5 46.65 0.5L46.65 0.5ZM43.45-16.35L43.45-13.9 48.6-13.9 48.6-16.35Q48.6-20.4 48.12-21.88 47.65-23.35 46.22-23.35 44.8-23.35 44.12-21.78 43.45-20.2 43.45-16.35L43.45-16.35ZM70.45-22.9L75.4-14.75 81.3-22.9 77.7-22.9 77.7-23.8 85.15-23.8 85.15-22.9 82.55-22.9 76.05-13.7 84.2-0.9 86.8-0.9 86.8 0 70.09 0 70.09-0.9 73.65-0.9 68.15-9.9 62.45-0.9 65.75-0.9 65.75 0 57.9 0 57.9-0.9 61.2-0.9 67.55-10.9 59.95-22.9 57.05-22.9 57.05-23.8 73.95-23.8 73.95-22.9 70.45-22.9ZM89.99-35L114.74-35 114.74-33.9 99.94-1.15 101.64-1.15Q106.14-1.15 109.57-4.03 112.99-6.9 114.49-12.2L114.49-12.2 115.39-12.2 114.79 0 89.19 0 89.19-0.95 104.14-33.9 102.09-33.9Q97.64-33.9 95.34-31.95 93.04-30 90.14-23.95L90.14-23.95 89.24-23.95 89.99-35ZM125.24-27.25Q122.59-27.25 121.47-28.6 120.34-29.95 120.34-31.95 120.34-33.95 121.57-35.25 122.79-36.55 125.29-36.55 127.79-36.55 129.09-35.38 130.39-34.2 130.39-32.02 130.39-29.85 129.14-28.55 127.89-27.25 125.24-27.25ZM117.69-22.9L117.69-23.8 129.94-23.8 129.94-0.9 132.74-0.9 132.74 0 117.89 0 117.89-0.9 120.64-0.9 120.64-22.9 117.69-22.9ZM133.74-22.9L133.74-23.8 145.79-23.8 145.79-19.2Q147.44-24.3 153.06-24.3 158.69-24.3 159.89-18.9L159.89-18.9Q161.64-24.3 167.24-24.3L167.24-24.3Q174.59-24.3 174.59-15.95L174.59-15.95 174.59-0.9 177.39-0.9 177.39 0 163.54 0 163.54-0.9 165.29-0.9 165.29-17.15Q165.29-20.95 164.64-21.6L164.64-21.6Q164.34-21.9 163.84-21.9L163.84-21.9Q162.39-21.9 161.29-19.95 160.19-18 160.19-15L160.19-15 160.19-0.9 161.99-0.9 161.99 0 149.14 0 149.14-0.9 150.89-0.9 150.89-17.15Q150.89-20.95 150.24-21.6L150.24-21.6Q149.94-21.9 149.44-21.9L149.44-21.9Q148.04-21.9 146.91-19.78 145.79-17.65 145.79-14.7L145.79-14.7 145.79-0.9 147.59-0.9 147.59 0 133.74 0 133.74-0.9 136.49-0.9 136.49-22.9 133.74-22.9Z" opacity="1" transform="matrix(1,0,0,1,0,0)" fill="#375a82" class="wordmark-text-0" data-fill-palette-color="primary" id="text-0"></path></svg></g></svg></g><g transform="matrix(1,0,0,1,0,63.54884520801299)"><svg viewBox="0 0 244.43135999999998 10.790642089955986" height="10.790642089955986" width="244.43135999999998"><g transform="matrix(1,0,0,1,0,0)"><svg width="244.43135999999998" viewBox="1.9383335333419998 -36.3 1048.6938093236279 46.3" height="10.790642089955986" data-palette-color="#375a82"><path d="M13.85 0.3L13.85 0.3Q10.7 0.3 8.43-0.98 6.15-2.25 4.67-4.48 3.2-6.7 2.53-9.53 1.85-12.35 1.95-15.4L1.95-15.4Q2.15-20.85 3.95-24.8 5.75-28.75 8.5-31.3 11.25-33.85 14.43-35.08 17.6-36.3 20.55-36.3L20.55-36.3Q23.05-36.3 25.08-35.48 27.1-34.65 28.3-33.08 29.5-31.5 29.5-29.25L29.5-29.25Q29.5-27.5 28.48-25.88 27.45-24.25 25.38-23.23 23.3-22.2 20.05-22.2L20.05-22.2Q20.6-23.8 20.85-25 21.1-26.2 21.1-27.05L21.1-27.05Q21.1-28.8 20.3-29.43 19.5-30.05 18.3-30.05L18.3-30.05Q16.85-30.05 15.55-29 14.25-27.95 13.23-26.18 12.2-24.4 11.6-22.25 11-20.1 10.9-17.9L10.9-17.9Q10.7-12.35 12.5-9.5 14.3-6.65 17.15-6.65L17.15-6.65Q19.35-6.65 22.03-8.45 24.7-10.25 27.3-13.9L27.3-13.9 27.95-13.6Q27.3-9.1 25.1-6 22.9-2.9 19.93-1.3 16.95 0.3 13.85 0.3ZM42.35 0.35L42.35 0.35Q38.6 0.35 36.15-1.15 33.7-2.65 32.52-5.13 31.35-7.6 31.35-10.4L31.35-10.4Q31.35-13.05 32.32-15.7 33.3-18.35 35.17-20.53 37.05-22.7 39.75-24.03 42.45-25.35 45.95-25.35L45.95-25.35Q49.7-25.35 52.12-23.83 54.55-22.3 55.72-19.8 56.9-17.3 56.9-14.45L56.9-14.45Q56.9-11.85 55.95-9.22 55-6.6 53.12-4.42 51.25-2.25 48.55-0.95 45.85 0.35 42.35 0.35ZM43.7-3.9L43.7-3.9Q45.05-3.9 45.95-5.3 46.85-6.7 47.3-8.88 47.75-11.05 47.75-13.3L47.75-13.3Q47.75-15.3 47.37-17.07 47-18.85 46.25-19.98 45.5-21.1 44.3-21.1L44.3-21.1Q43-21.1 42.07-19.7 41.15-18.3 40.7-16.15 40.25-14 40.25-11.7L40.25-11.7Q40.25-9.7 40.62-7.93 41-6.15 41.75-5.03 42.5-3.9 43.7-3.9ZM65.64 0.15L65.64 0.15Q63.8 0.15 62.3-1.33 60.8-2.8 60.8-5.45L60.8-5.45Q60.8-6.75 61.15-8.4 61.5-10.05 61.92-11.75 62.34-13.45 62.7-14.95 63.05-16.45 63.05-17.4L63.05-17.4Q63.05-18.4 62.65-18.98 62.25-19.55 61.59-19.55L61.59-19.55Q60.75-19.55 59.75-18.55L59.75-18.55 59.45-18.75Q59.4-19.55 59.8-20.65 60.2-21.75 61.02-22.78 61.84-23.8 63.15-24.5 64.45-25.2 66.25-25.2L66.25-25.2Q68.9-25.2 70.17-23.68 71.45-22.15 71.45-19.95L71.45-19.95Q71.45-19.15 71.3-18.4L71.3-18.4Q72.34-19.95 73.9-21.53 75.45-23.1 77.32-24.15 79.2-25.2 81.2-25.2L81.2-25.2Q83.55-25.2 84.4-23.7 85.25-22.2 85.25-19.95L85.25-19.95Q85.25-17.85 84.8-15.45 84.34-13.05 83.9-10.83 83.45-8.6 83.45-7.1L83.45-7.1Q83.45-5.1 84.59-5.1L84.59-5.1Q85.2-5.1 85.65-5.48 86.09-5.85 86.25-6.2L86.25-6.2 86.59-6.05Q86.59-4.2 85.57-2.8 84.55-1.4 83-0.63 81.45 0.15 79.84 0.15L79.84 0.15Q77.9 0.15 76.4-1.2 74.9-2.55 74.9-5.6L74.9-5.6Q74.9-7.4 75.37-9.5 75.84-11.6 76.3-13.55 76.75-15.5 76.75-16.75L76.75-16.75Q76.75-17.5 76.47-17.93 76.2-18.35 75.5-18.35L75.5-18.35Q74.34-18.35 72.97-17.3 71.59-16.25 70.62-14.5 69.65-12.75 69.65-10.65L69.65-10.65Q69.65-9.3 69.97-8.05 70.3-6.8 70.3-5.35L70.3-5.35Q70.3-2.65 68.9-1.25 67.5 0.15 65.64 0.15ZM95.09 0.15L95.09 0.15Q93.24 0.15 91.74-1.33 90.24-2.8 90.24-5.45L90.24-5.45Q90.24-6.75 90.59-8.4 90.94-10.05 91.37-11.75 91.79-13.45 92.14-14.95 92.49-16.45 92.49-17.4L92.49-17.4Q92.49-18.4 92.09-18.98 91.69-19.55 91.04-19.55L91.04-19.55Q90.19-19.55 89.19-18.55L89.19-18.55 88.89-18.75Q88.84-19.55 89.24-20.65 89.64-21.75 90.47-22.78 91.29-23.8 92.59-24.5 93.89-25.2 95.69-25.2L95.69-25.2Q98.34-25.2 99.62-23.68 100.89-22.15 100.89-19.95L100.89-19.95Q100.89-19.15 100.74-18.4L100.74-18.4Q101.79-19.95 103.34-21.53 104.89-23.1 106.77-24.15 108.64-25.2 110.64-25.2L110.64-25.2Q112.99-25.2 113.84-23.7 114.69-22.2 114.69-19.95L114.69-19.95Q114.69-17.85 114.24-15.45 113.79-13.05 113.34-10.83 112.89-8.6 112.89-7.1L112.89-7.1Q112.89-5.1 114.04-5.1L114.04-5.1Q114.64-5.1 115.09-5.48 115.54-5.85 115.69-6.2L115.69-6.2 116.04-6.05Q116.04-4.2 115.02-2.8 113.99-1.4 112.44-0.63 110.89 0.15 109.29 0.15L109.29 0.15Q107.34 0.15 105.84-1.2 104.34-2.55 104.34-5.6L104.34-5.6Q104.34-7.4 104.82-9.5 105.29-11.6 105.74-13.55 106.19-15.5 106.19-16.75L106.19-16.75Q106.19-17.5 105.92-17.93 105.64-18.35 104.94-18.35L104.94-18.35Q103.79-18.35 102.42-17.3 101.04-16.25 100.07-14.5 99.09-12.75 99.09-10.65L99.09-10.65Q99.09-9.3 99.42-8.05 99.74-6.8 99.74-5.35L99.74-5.35Q99.74-2.65 98.34-1.25 96.94 0.15 95.09 0.15ZM129.44 0.35L129.44 0.35Q125.79 0.35 123.39-1.13 120.99-2.6 119.79-5.03 118.59-7.45 118.59-10.25L118.59-10.25Q118.59-12.9 119.62-15.58 120.64-18.25 122.62-20.45 124.59-22.65 127.42-24 130.24-25.35 133.79-25.35L133.79-25.35Q138.19-25.35 140.22-23.38 142.24-21.4 142.24-18.6L142.24-18.6Q142.24-16.2 140.97-14.18 139.69-12.15 137.59-10.93 135.49-9.7 132.99-9.7L132.99-9.7Q131.69-9.7 130.34-10.1 128.99-10.5 127.69-11.35L127.69-11.35Q127.94-8.25 129.49-6.85 131.04-5.45 133.19-5.45L133.19-5.45Q134.69-5.45 136.19-6.03 137.69-6.6 138.97-7.53 140.24-8.45 140.94-9.5L140.94-9.5 141.29-9.25Q141.29-6.65 140.22-4.83 139.14-3 137.39-1.85 135.64-0.7 133.56-0.18 131.49 0.35 129.44 0.35ZM130.59-13.15L130.59-13.15Q132.19-13.15 133.19-14.08 134.19-15 134.69-16.25 135.19-17.5 135.19-18.45L135.19-18.45Q135.19-19.6 134.54-20.38 133.89-21.15 132.74-21.15L132.74-21.15Q131.84-21.15 130.77-20.5 129.69-19.85 128.84-18.28 127.99-16.7 127.74-13.9L127.74-13.9Q129.34-13.15 130.59-13.15ZM154.39 0.35L154.39 0.35Q151.09 0.35 148.81-1.15 146.54-2.65 145.39-5.08 144.24-7.5 144.24-10.3L144.24-10.3Q144.24-12.95 145.26-15.6 146.29-18.25 148.29-20.48 150.29-22.7 153.16-24.03 156.04-25.35 159.79-25.35L159.79-25.35Q163.49-25.35 165.29-23.88 167.09-22.4 167.09-20.65L167.09-20.65Q167.09-18.8 165.24-17.25 163.39-15.7 159.84-15.7L159.84-15.7Q160.04-16.45 160.16-17.23 160.29-18 160.29-18.7L160.29-18.7Q160.29-19.75 159.84-20.48 159.39-21.2 158.24-21.2L158.24-21.2Q157.19-21.2 156.01-20.25 154.84-19.3 154.01-17.45 153.19-15.6 153.19-12.9L153.19-12.9Q153.19-10.25 154.06-8.6 154.94-6.95 156.34-6.23 157.74-5.5 159.29-5.5L159.29-5.5Q161.34-5.5 163.24-6.58 165.14-7.65 165.99-9.55L165.99-9.55 166.49-9.35Q166.49-6.75 165.31-4.93 164.14-3.1 162.29-1.93 160.44-0.75 158.34-0.2 156.24 0.35 154.39 0.35ZM176.28 0.2L176.28 0.2Q174.69 0.2 173.26-0.53 171.84-1.25 170.96-2.8 170.09-4.35 170.09-6.75L170.09-6.75Q170.09-8.05 170.34-10.15 170.59-12.25 171.01-14.75 171.44-17.25 171.88-19.75L171.88-19.75Q170.88-19.7 169.96-19.55 169.03-19.4 168.13-19.2L168.13-19.2 168.03-19.55Q169.03-20.75 170.13-21.6 171.24-22.45 172.44-23L172.44-23Q173.09-26.3 173.53-28.73 173.99-31.15 173.99-31.6L173.99-31.6Q173.99-32.45 175.31-33 176.63-33.55 178.28-33.55L178.28-33.55Q179.74-33.55 181.01-33 182.28-32.45 182.74-31.15L182.74-31.15Q182.44-30.85 181.88-28.93 181.34-27 180.74-24.25L180.74-24.25Q181.69-24.2 182.69-24.15 183.69-24.1 184.74-24L184.74-24Q184.84-23.7 184.88-23.35 184.94-23 184.94-22.6L184.94-22.6Q184.94-21.85 184.71-20.98 184.49-20.1 184.19-19.4L184.19-19.4Q182.99-19.5 181.94-19.63 180.88-19.75 179.88-19.8L179.88-19.8Q179.49-17.65 179.16-15.5 178.84-13.35 178.66-11.6 178.49-9.85 178.49-8.85L178.49-8.85Q178.49-6.75 179.26-6.05 180.03-5.35 181.13-5.35L181.13-5.35Q182.13-5.35 182.94-5.75 183.74-6.15 184.09-6.7L184.09-6.7 184.59-6.55Q184.28-4.5 182.99-2.98 181.69-1.45 179.88-0.63 178.09 0.2 176.28 0.2ZM196.23-26.75L196.23-26.75Q194.23-26.75 192.96-27.98 191.68-29.2 191.68-31.05L191.68-31.05Q191.68-33.05 193.18-34.5 194.68-35.95 196.83-35.95L196.83-35.95Q198.83-35.95 200.11-34.7 201.38-33.45 201.38-31.6L201.38-31.6Q201.38-29.6 199.88-28.18 198.38-26.75 196.23-26.75ZM192.73 0.2L192.73 0.2Q190.78 0.2 189.23-1.18 187.68-2.55 187.68-5.6L187.68-5.6Q187.68-7.35 188.16-8.88 188.63-10.4 189.26-11.85 189.88-13.3 190.36-14.68 190.83-16.05 190.83-17.4L190.83-17.4Q190.83-18.6 190.43-19.13 190.03-19.65 189.48-19.65L189.48-19.65Q188.63-19.65 187.83-18.55L187.83-18.55 187.48-18.75Q187.68-20.75 188.76-22.18 189.83-23.6 191.41-24.4 192.98-25.2 194.53-25.2L194.53-25.2Q196.43-25.2 197.83-23.98 199.23-22.75 199.23-20L199.23-20Q199.23-18.35 198.76-16.53 198.28-14.7 197.66-12.9 197.03-11.1 196.56-9.55 196.08-8 196.08-6.9L196.08-6.9Q196.08-5.95 196.46-5.55 196.83-5.15 197.28-5.15L197.28-5.15Q197.73-5.15 198.16-5.43 198.58-5.7 198.78-6.05L198.78-6.05 199.13-5.95Q199.13-4.1 198.16-2.73 197.18-1.35 195.73-0.58 194.28 0.2 192.73 0.2ZM208.93 0.15L208.93 0.15Q207.08 0.15 205.58-1.33 204.08-2.8 204.08-5.45L204.08-5.45Q204.08-6.75 204.43-8.4 204.78-10.05 205.21-11.75 205.63-13.45 205.98-14.95 206.33-16.45 206.33-17.4L206.33-17.4Q206.33-18.4 205.93-18.98 205.53-19.55 204.88-19.55L204.88-19.55Q204.03-19.55 203.03-18.55L203.03-18.55 202.73-18.75Q202.68-19.55 203.08-20.65 203.48-21.75 204.31-22.78 205.13-23.8 206.43-24.5 207.73-25.2 209.53-25.2L209.53-25.2Q212.18-25.2 213.46-23.68 214.73-22.15 214.73-19.95L214.73-19.95Q214.73-19.15 214.58-18.4L214.58-18.4Q215.63-19.95 217.18-21.53 218.73-23.1 220.61-24.15 222.48-25.2 224.48-25.2L224.48-25.2Q226.83-25.2 227.68-23.7 228.53-22.2 228.53-19.95L228.53-19.95Q228.53-17.85 228.08-15.45 227.63-13.05 227.18-10.83 226.73-8.6 226.73-7.1L226.73-7.1Q226.73-5.1 227.88-5.1L227.88-5.1Q228.48-5.1 228.93-5.48 229.38-5.85 229.53-6.2L229.53-6.2 229.88-6.05Q229.88-4.2 228.86-2.8 227.83-1.4 226.28-0.63 224.73 0.15 223.13 0.15L223.13 0.15Q221.18 0.15 219.68-1.2 218.18-2.55 218.18-5.6L218.18-5.6Q218.18-7.4 218.66-9.5 219.13-11.6 219.58-13.55 220.03-15.5 220.03-16.75L220.03-16.75Q220.03-17.5 219.76-17.93 219.48-18.35 218.78-18.35L218.78-18.35Q217.63-18.35 216.26-17.3 214.88-16.25 213.91-14.5 212.93-12.75 212.93-10.65L212.93-10.65Q212.93-9.3 213.26-8.05 213.58-6.8 213.58-5.35L213.58-5.35Q213.58-2.65 212.18-1.25 210.78 0.15 208.93 0.15ZM244.68 10L244.68 10Q242.23 10 240.63 8.55 239.03 7.1 239.03 4.45L239.03 4.45Q239.03 1.6 241.03-2.25L241.03-2.25Q240.68-2.15 240.33-2.1 239.98-2.05 239.63-2.05L239.63-2.05Q236.73-2.05 234.75-4.58 232.78-7.1 232.78-11.6L232.78-11.6Q232.78-15.65 234.35-18.75 235.93-21.85 238.38-23.6 240.83-25.35 243.48-25.35L243.48-25.35Q245.33-25.35 246.83-24.43 248.33-23.5 249.28-21.45L249.28-21.45Q249.33-21.95 249.33-22.35 249.33-22.75 249.33-23.1L249.33-23.1Q249.33-23.95 250.63-24.5 251.93-25.05 253.53-25.05L253.53-25.05Q254.98-25.05 256.23-24.5 257.48-23.95 257.88-22.65L257.88-22.65 257.98-22.35Q257.53-21.95 257.2-19.75 256.88-17.55 256.43-13.65L256.43-13.65Q256.13-11.2 255.68-8.08 255.23-4.95 254.45-1.78 253.68 1.4 252.43 4.08 251.18 6.75 249.28 8.38 247.38 10 244.68 10ZM243.03-7.8L243.03-7.8Q244.48-7.8 246.25-10.18 248.03-12.55 249.08-17L249.08-17Q248.18-18.95 247.25-19.78 246.33-20.6 245.38-20.6L245.38-20.6Q244.13-20.6 243.03-19.35 241.93-18.1 241.25-16.18 240.58-14.25 240.58-12.2L240.58-12.2Q240.58-10.1 241.28-8.95 241.98-7.8 243.03-7.8ZM242.43 4.25L242.43 4.25Q244.13 4.25 245.9 0.93 247.68-2.4 248.38-8.45L248.38-8.45Q244.58-3.3 243.1-0.53 241.63 2.25 241.63 3.4L241.63 3.4Q241.63 4.25 242.43 4.25ZM290.67 1.25L290.67 1.25Q287.92 1.25 285.32-0.13 282.72-1.5 280.32-4.9L280.32-4.9Q277.77-2.2 274.17 0.3L274.17 0.3Q272.47 0.3 270.95-1.05 269.42-2.4 268.12-5.85L268.12-5.85Q268.37-5.85 268.65-5.98 268.92-6.1 269.72-6.7L269.72-6.7Q272.72-8.9 275-11.43 277.27-13.95 278.85-16.18 280.42-18.4 281.32-19.75L281.32-19.75Q282.72-21.85 283.52-23.08 284.32-24.3 284.82-25.05 285.32-25.8 285.72-26.4L285.72-26.4Q284.57-27.45 283.37-27.93 282.17-28.4 281.12-28.4L281.12-28.4Q279.57-28.4 278.47-27.45 277.37-26.5 277.37-24.9L277.37-24.9Q277.37-23.4 278.52-21.65L278.52-21.65Q275.87-21.65 274.22-22.55 272.57-23.45 271.82-24.9 271.07-26.35 271.07-28L271.07-28Q271.07-29.95 272.02-31.8 272.97-33.65 274.65-34.85 276.32-36.05 278.57-36.05L278.57-36.05Q280.67-36.05 283.17-34.68 285.67-33.3 288.37-30L288.37-30Q289.87-31.9 291.6-33.52 293.32-35.15 295.42-36.3L295.42-36.3Q298.27-35.65 299.47-33.63 300.67-31.6 300.67-29.3L300.67-29.3Q300.67-28.9 300.65-28.53 300.62-28.15 300.57-27.75L300.57-27.75Q300.52-27.8 300.45-27.8 300.37-27.8 300.37-27.8L300.37-27.8Q299.92-27.8 299.07-27.4L299.07-27.4Q296.22-26.05 294.3-24.25 292.37-22.45 291.17-20.73 289.97-19 289.22-17.75L289.22-17.75Q287.72-15.2 286.65-13.43 285.57-11.65 284.7-10.3 283.82-8.95 282.87-7.7L282.87-7.7Q284.17-6.45 285.45-5.9 286.72-5.35 287.82-5.35L287.82-5.35Q289.72-5.35 290.95-6.63 292.17-7.9 292.17-9.6L292.17-9.6Q292.17-10.6 291.67-11.65 291.17-12.7 290.07-13.55L290.07-13.55Q290.97-14.1 292.32-14.38 293.67-14.65 294.47-14.65L294.47-14.65Q296.22-14.65 297.4-13.7 298.57-12.75 299.2-11.2 299.82-9.65 299.82-7.85L299.82-7.85Q299.82-5.7 298.85-3.6 297.87-1.5 295.87-0.13 293.87 1.25 290.67 1.25ZM312.57-26.75L312.57-26.75Q310.57-26.75 309.3-27.98 308.02-29.2 308.02-31.05L308.02-31.05Q308.02-33.05 309.52-34.5 311.02-35.95 313.17-35.95L313.17-35.95Q315.17-35.95 316.45-34.7 317.72-33.45 317.72-31.6L317.72-31.6Q317.72-29.6 316.22-28.18 314.72-26.75 312.57-26.75ZM309.07 0.2L309.07 0.2Q307.12 0.2 305.57-1.18 304.02-2.55 304.02-5.6L304.02-5.6Q304.02-7.35 304.5-8.88 304.97-10.4 305.6-11.85 306.22-13.3 306.7-14.68 307.17-16.05 307.17-17.4L307.17-17.4Q307.17-18.6 306.77-19.13 306.37-19.65 305.82-19.65L305.82-19.65Q304.97-19.65 304.17-18.55L304.17-18.55 303.82-18.75Q304.02-20.75 305.1-22.18 306.17-23.6 307.75-24.4 309.32-25.2 310.87-25.2L310.87-25.2Q312.77-25.2 314.17-23.98 315.57-22.75 315.57-20L315.57-20Q315.57-18.35 315.1-16.53 314.62-14.7 314-12.9 313.37-11.1 312.9-9.55 312.42-8 312.42-6.9L312.42-6.9Q312.42-5.95 312.8-5.55 313.17-5.15 313.62-5.15L313.62-5.15Q314.07-5.15 314.5-5.43 314.92-5.7 315.12-6.05L315.12-6.05 315.47-5.95Q315.47-4.1 314.5-2.73 313.52-1.35 312.07-0.58 310.62 0.2 309.07 0.2ZM324.82 0.2L324.82 0.2Q323.02 0.2 321.59-1.28 320.17-2.75 320.17-5.35L320.17-5.35Q320.17-6.65 320.52-8.33 320.87-10 321.29-11.75 321.72-13.5 322.07-15.05 322.42-16.6 322.42-17.65L322.42-17.65Q322.42-18.5 322.02-19.03 321.62-19.55 320.97-19.55L320.97-19.55Q320.12-19.55 319.12-18.55L319.12-18.55 318.82-18.75Q318.77-19.55 319.17-20.65 319.57-21.75 320.47-22.78 321.37-23.8 322.82-24.5 324.27-25.2 326.27-25.2L326.27-25.2Q328.52-25.2 329.64-23.63 330.77-22.05 330.77-19.85L330.77-19.85Q330.77-19.6 330.77-19.33 330.77-19.05 330.72-18.8L330.72-18.8Q331.67-20.35 332.94-21.8 334.22-23.25 335.84-24.23 337.47-25.2 339.37-25.2L339.37-25.2Q341.82-25.2 342.77-23.63 343.72-22.05 343.72-20.05L343.72-20.05Q343.72-19.65 343.69-19.28 343.67-18.9 343.62-18.55L343.62-18.55Q344.67-20.1 345.94-21.63 347.22-23.15 348.87-24.18 350.52-25.2 352.67-25.2L352.67-25.2Q355.32-25.2 356.29-23.65 357.27-22.1 357.27-20L357.27-20Q357.27-18.15 356.82-15.78 356.37-13.4 355.92-11.1 355.47-8.8 355.47-7.2L355.47-7.2Q355.47-6.25 355.74-5.65 356.02-5.05 356.67-5.05L356.67-5.05Q357.22-5.05 357.69-5.38 358.17-5.7 358.37-6.15L358.37-6.15 358.77-6Q358.77-4.15 357.72-2.75 356.67-1.35 355.07-0.58 353.47 0.2 351.87 0.2L351.87 0.2Q349.92 0.2 348.44-1.1 346.97-2.4 346.97-5.4L346.97-5.4Q346.97-7.25 347.44-9.4 347.92-11.55 348.39-13.58 348.87-15.6 348.87-16.9L348.87-16.9Q348.87-18.75 347.57-18.75L347.57-18.75Q346.62-18.75 345.69-17.98 344.77-17.2 344.04-15.93 343.32-14.65 342.87-13.25 342.42-11.85 342.42-10.55L342.42-10.55Q342.42-9.35 342.69-7.93 342.97-6.5 342.97-5.2L342.97-5.2Q342.97-2.6 341.52-1.2 340.07 0.2 338.12 0.2L338.12 0.2Q336.32 0.2 334.89-1 333.47-2.2 333.47-4.6L333.47-4.6Q333.47-5.7 333.77-7.28 334.07-8.85 334.44-10.58 334.82-12.3 335.12-13.9 335.42-15.5 335.42-16.7L335.42-16.7Q335.42-17.65 335.14-18.2 334.87-18.75 334.07-18.75L334.07-18.75Q332.92-18.75 331.87-17.6 330.82-16.45 330.07-14.83 329.32-13.2 329.07-11.7L329.07-11.7Q329.02-11.35 328.99-11.15 328.97-10.95 328.97-10.95L328.97-10.95Q328.97-9.4 329.32-8.13 329.67-6.85 329.67-5.5L329.67-5.5Q329.67-3.05 328.19-1.43 326.72 0.2 324.82 0.2ZM374.32 0.2L374.32 0.2Q372.32 0.2 370.67-0.68 369.02-1.55 367.97-3.25L367.97-3.25Q367.92-2.3 367.27-1.5 366.62-0.7 364.82-0.7L364.82-0.7Q362.82-0.7 361.87-1.8 360.92-2.9 360.92-4.7L360.92-4.7Q360.92-5.8 361.22-7.88 361.52-9.95 361.94-12.55 362.37-15.15 362.79-17.95 363.22-20.75 363.52-23.4 363.82-26.05 363.82-28.15L363.82-28.15Q363.82-29.55 363.67-30.6 363.52-31.65 363.12-32.25L363.12-32.25 363.12-32.55Q364.27-33.8 365.52-34.43 366.77-35.05 367.92-35.05L367.92-35.05Q369.62-35.05 370.82-33.7 372.02-32.35 372.02-29.4L372.02-29.4Q372.02-27.95 371.72-25.33 371.42-22.7 370.97-20.1L370.97-20.1Q372.77-22.65 374.79-24 376.82-25.35 378.72-25.35L378.72-25.35Q381.27-25.35 383.07-22.93 384.87-20.5 384.87-15.6L384.87-15.6Q384.87-12.7 384.19-9.88 383.52-7.05 382.17-4.78 380.82-2.5 378.84-1.15 376.87 0.2 374.32 0.2ZM371.82-4.85L371.82-4.85Q373.42-4.85 374.54-6.25 375.67-7.65 376.24-9.83 376.82-12 376.82-14.3L376.82-14.3Q376.82-15.8 376.57-17.18 376.32-18.55 375.82-19.43 375.32-20.3 374.52-20.3L374.52-20.3Q373.12-20.3 371.34-17.03 369.57-13.75 368.57-7.75L368.57-7.75Q369.47-4.85 371.82-4.85ZM405.81 0.25L405.81 0.25Q404.06 0.25 402.76-0.9 401.46-2.05 401.46-4.65L401.46-4.65Q401.46-4.9 401.46-5.15 401.46-5.4 401.51-5.65L401.51-5.65Q400.01-2.65 398.14-1.23 396.26 0.2 394.36 0.2L394.36 0.2Q392.61 0.2 391.06-1.03 389.51-2.25 388.56-4.65 387.61-7.05 387.61-10.45L387.61-10.45Q387.61-13.95 388.59-16.7 389.56-19.45 391.16-21.35 392.76-23.25 394.66-24.23 396.56-25.2 398.36-25.2L398.36-25.2Q400.36-25.2 401.96-23.98 403.56-22.75 404.16-20.1L404.16-20.1Q404.31-20.95 404.39-21.65 404.46-22.35 404.46-22.6L404.46-22.6Q404.51-23.95 405.84-24.6 407.16-25.25 408.76-25.25L408.76-25.25Q410.16-25.25 411.41-24.7 412.66-24.15 413.11-22.85L413.11-22.85 413.21-22.55Q412.61-21.2 412.01-19.3 411.41-17.4 410.91-15.33 410.41-13.25 410.11-11.28 409.81-9.3 409.81-7.8L409.81-7.8Q409.81-6.15 410.16-5.53 410.51-4.9 411.01-4.9L411.01-4.9Q411.86-4.9 412.56-6.1L412.56-6.1 412.96-5.9Q412.96-4.2 411.86-2.8 410.76-1.4 409.11-0.58 407.46 0.25 405.81 0.25ZM397.66-6.1L397.66-6.1Q398.96-6.1 400.54-8.43 402.11-10.75 403.26-15.1L403.26-15.1Q403.36-15.55 403.46-15.98 403.56-16.4 403.61-16.8L403.61-16.8Q402.81-18.65 401.94-19.43 401.06-20.2 400.21-20.2L400.21-20.2Q398.96-20.2 397.89-18.88 396.81-17.55 396.14-15.55 395.46-13.55 395.46-11.55L395.46-11.55Q395.46-8.8 396.09-7.45 396.71-6.1 397.66-6.1ZM428.96 0.2L428.96 0.2Q426.96 0.2 425.31-0.68 423.66-1.55 422.61-3.25L422.61-3.25Q422.56-2.3 421.91-1.5 421.26-0.7 419.46-0.7L419.46-0.7Q417.46-0.7 416.51-1.8 415.56-2.9 415.56-4.7L415.56-4.7Q415.56-5.8 415.86-7.88 416.16-9.95 416.59-12.55 417.01-15.15 417.44-17.95 417.86-20.75 418.16-23.4 418.46-26.05 418.46-28.15L418.46-28.15Q418.46-29.55 418.31-30.6 418.16-31.65 417.76-32.25L417.76-32.25 417.76-32.55Q418.91-33.8 420.16-34.43 421.41-35.05 422.56-35.05L422.56-35.05Q424.26-35.05 425.46-33.7 426.66-32.35 426.66-29.4L426.66-29.4Q426.66-27.95 426.36-25.33 426.06-22.7 425.61-20.1L425.61-20.1Q427.41-22.65 429.44-24 431.46-25.35 433.36-25.35L433.36-25.35Q435.91-25.35 437.71-22.93 439.51-20.5 439.51-15.6L439.51-15.6Q439.51-12.7 438.84-9.88 438.16-7.05 436.81-4.78 435.46-2.5 433.49-1.15 431.51 0.2 428.96 0.2ZM426.46-4.85L426.46-4.85Q428.06-4.85 429.19-6.25 430.31-7.65 430.89-9.83 431.46-12 431.46-14.3L431.46-14.3Q431.46-15.8 431.21-17.18 430.96-18.55 430.46-19.43 429.96-20.3 429.16-20.3L429.16-20.3Q427.76-20.3 425.99-17.03 424.21-13.75 423.21-7.75L423.21-7.75Q424.11-4.85 426.46-4.85ZM449.31 0.2L449.31 0.2Q446.71 0.2 445.08-1.33 443.46-2.85 443.46-6.05L443.46-6.05Q443.46-7.65 443.83-9.43 444.21-11.2 444.68-12.93 445.16-14.65 445.51-16.05 445.86-17.45 445.86-18.3L445.86-18.3Q445.86-19.15 445.51-19.53 445.16-19.9 444.66-19.9L444.66-19.9Q444.16-19.9 443.66-19.58 443.16-19.25 442.81-18.6L442.81-18.6 442.41-18.75Q442.51-20.8 443.56-22.25 444.61-23.7 446.18-24.45 447.76-25.2 449.36-25.2L449.36-25.2Q450.66-25.2 451.86-24.68 453.06-24.15 453.78-23.08 454.51-22 454.46-20.35L454.46-20.35Q454.41-19.25 454.06-17.65 453.71-16.05 453.23-14.23 452.76-12.4 452.41-10.7 452.06-9 452.06-7.7L452.06-7.7Q452.06-6.6 452.38-5.95 452.71-5.3 453.51-5.3L453.51-5.3Q454.36-5.3 455.76-6.2 457.16-7.1 458.56-8.8L458.56-8.8Q458.26-11.6 458.26-13.75L458.26-13.75Q458.26-19.25 459.88-21.7 461.51-24.15 463.96-24.15L463.96-24.15Q465.76-24.15 466.41-22.95 467.06-21.75 467.06-19.75L467.06-19.75Q467.06-16.8 466.06-14.2 465.06-11.6 463.71-10.05L463.71-10.05Q463.81-7.8 464.63-6.55 465.46-5.3 466.61-5.3L466.61-5.3Q467.76-5.3 468.98-6.6 470.21-7.9 471.11-10.6 472.01-13.3 472.16-17.45L472.16-17.45Q472.21-20.8 471.71-22.35L471.71-22.35 471.71-22.6Q472.41-23.75 473.93-24.58 475.46-25.4 477.01-25.4L477.01-25.4Q478.11-25.4 479.03-24.78 479.96-24.15 480.51-22.48 481.06-20.8 480.91-17.65L480.91-17.65Q480.76-13.25 479.46-9.93 478.16-6.6 476.13-4.35 474.11-2.1 471.76-0.95 469.41 0.2 467.11 0.2L467.11 0.2Q464.51 0.2 462.36-1.23 460.21-2.65 459.11-5.25L459.11-5.25Q456.86-2.9 454.48-1.35 452.11 0.2 449.31 0.2ZM493.96 0.35L493.96 0.35Q490.31 0.35 487.91-1.13 485.51-2.6 484.31-5.03 483.11-7.45 483.11-10.25L483.11-10.25Q483.11-12.9 484.13-15.58 485.16-18.25 487.13-20.45 489.11-22.65 491.93-24 494.76-25.35 498.31-25.35L498.31-25.35Q502.71-25.35 504.73-23.38 506.76-21.4 506.76-18.6L506.76-18.6Q506.76-16.2 505.48-14.18 504.21-12.15 502.11-10.93 500.01-9.7 497.51-9.7L497.51-9.7Q496.21-9.7 494.86-10.1 493.51-10.5 492.21-11.35L492.21-11.35Q492.46-8.25 494.01-6.85 495.56-5.45 497.71-5.45L497.71-5.45Q499.21-5.45 500.71-6.03 502.21-6.6 503.48-7.53 504.76-8.45 505.46-9.5L505.46-9.5 505.81-9.25Q505.81-6.65 504.73-4.83 503.66-3 501.91-1.85 500.16-0.7 498.08-0.18 496.01 0.35 493.96 0.35ZM495.11-13.15L495.11-13.15Q496.71-13.15 497.71-14.08 498.71-15 499.21-16.25 499.71-17.5 499.71-18.45L499.71-18.45Q499.71-19.6 499.06-20.38 498.41-21.15 497.26-21.15L497.26-21.15Q496.36-21.15 495.28-20.5 494.21-19.85 493.36-18.28 492.51-16.7 492.26-13.9L492.26-13.9Q493.86-13.15 495.11-13.15ZM507.85 7.55L507.85 7.55Q507.45 7.15 507.2 6.4L507.2 6.4Q508.9 5.25 509.45 3.98 510 2.7 510 1.3L510 1.3Q510-0.2 509.68-1.68 509.35-3.15 509.35-4.4L509.35-4.4Q509.35-6.65 510.73-7.95 512.1-9.25 514.4-9.25L514.4-9.25Q516.85-9.25 518.03-7.88 519.2-6.5 519.2-4.45L519.2-4.45Q519.2-2.35 517.93 0.1 516.65 2.55 514.15 4.58 511.65 6.6 507.85 7.55ZM534.75 0.25L534.75 0.25Q533.35 0.25 532.27-0.93 531.2-2.1 531.2-5.3L531.2-5.3Q531.2-5.85 531.22-6.28 531.25-6.7 531.25-6.9L531.25-6.9Q531.45-8.9 531.82-11.88 532.2-14.85 532.7-18.13 533.2-21.4 533.72-24.45 534.25-27.5 534.7-29.78 535.15-32.05 535.45-32.9L535.45-32.9Q536-34.4 537.42-35.27 538.85-36.15 540.35-36.15L540.35-36.15Q541.65-36.15 542.72-35.4 543.8-34.65 544.2-32.85L544.2-32.85Q543.9-31.85 543.25-29.33 542.6-26.8 541.85-23.15 541.1-19.5 540.42-15.1 539.75-10.7 539.35-5.9L539.35-5.9Q539.3-5.05 539.2-3.93 539.1-2.8 539.05-1.65L539.05-1.65Q538.45-1 537.25-0.38 536.05 0.25 534.75 0.25ZM552.79 0.15L552.79 0.15Q550.94 0.15 549.44-1.33 547.94-2.8 547.94-5.45L547.94-5.45Q547.94-6.75 548.29-8.4 548.64-10.05 549.07-11.75 549.49-13.45 549.84-14.95 550.19-16.45 550.19-17.4L550.19-17.4Q550.19-18.4 549.79-18.98 549.39-19.55 548.74-19.55L548.74-19.55Q547.89-19.55 546.89-18.55L546.89-18.55 546.59-18.75Q546.54-19.55 546.94-20.65 547.34-21.75 548.17-22.78 548.99-23.8 550.29-24.5 551.59-25.2 553.39-25.2L553.39-25.2Q556.04-25.2 557.32-23.68 558.59-22.15 558.59-19.95L558.59-19.95Q558.59-19.15 558.44-18.4L558.44-18.4Q559.49-19.95 561.04-21.53 562.59-23.1 564.47-24.15 566.34-25.2 568.34-25.2L568.34-25.2Q570.69-25.2 571.54-23.7 572.39-22.2 572.39-19.95L572.39-19.95Q572.39-17.85 571.94-15.45 571.49-13.05 571.04-10.83 570.59-8.6 570.59-7.1L570.59-7.1Q570.59-5.1 571.74-5.1L571.74-5.1Q572.34-5.1 572.79-5.48 573.24-5.85 573.39-6.2L573.39-6.2 573.74-6.05Q573.74-4.2 572.72-2.8 571.69-1.4 570.14-0.63 568.59 0.15 566.99 0.15L566.99 0.15Q565.04 0.15 563.54-1.2 562.04-2.55 562.04-5.6L562.04-5.6Q562.04-7.4 562.52-9.5 562.99-11.6 563.44-13.55 563.89-15.5 563.89-16.75L563.89-16.75Q563.89-17.5 563.62-17.93 563.34-18.35 562.64-18.35L562.64-18.35Q561.49-18.35 560.12-17.3 558.74-16.25 557.77-14.5 556.79-12.75 556.79-10.65L556.79-10.65Q556.79-9.3 557.12-8.05 557.44-6.8 557.44-5.35L557.44-5.35Q557.44-2.65 556.04-1.25 554.64 0.15 552.79 0.15ZM582.24 0.15L582.24 0.15Q580.39 0.15 578.89-1.33 577.39-2.8 577.39-5.45L577.39-5.45Q577.39-6.75 577.74-8.4 578.09-10.05 578.52-11.75 578.94-13.45 579.29-14.95 579.64-16.45 579.64-17.4L579.64-17.4Q579.64-18.4 579.24-18.98 578.84-19.55 578.19-19.55L578.19-19.55Q577.34-19.55 576.34-18.55L576.34-18.55 576.04-18.75Q575.99-19.55 576.39-20.65 576.79-21.75 577.62-22.78 578.44-23.8 579.74-24.5 581.04-25.2 582.84-25.2L582.84-25.2Q585.49-25.2 586.77-23.68 588.04-22.15 588.04-19.95L588.04-19.95Q588.04-19.15 587.89-18.4L587.89-18.4Q588.94-19.95 590.49-21.53 592.04-23.1 593.92-24.15 595.79-25.2 597.79-25.2L597.79-25.2Q600.14-25.2 600.99-23.7 601.84-22.2 601.84-19.95L601.84-19.95Q601.84-17.85 601.39-15.45 600.94-13.05 600.49-10.83 600.04-8.6 600.04-7.1L600.04-7.1Q600.04-5.1 601.19-5.1L601.19-5.1Q601.79-5.1 602.24-5.48 602.69-5.85 602.84-6.2L602.84-6.2 603.19-6.05Q603.19-4.2 602.17-2.8 601.14-1.4 599.59-0.63 598.04 0.15 596.44 0.15L596.44 0.15Q594.49 0.15 592.99-1.2 591.49-2.55 591.49-5.6L591.49-5.6Q591.49-7.4 591.97-9.5 592.44-11.6 592.89-13.55 593.34-15.5 593.34-16.75L593.34-16.75Q593.34-17.5 593.07-17.93 592.79-18.35 592.09-18.35L592.09-18.35Q590.94-18.35 589.57-17.3 588.19-16.25 587.22-14.5 586.24-12.75 586.24-10.65L586.24-10.65Q586.24-9.3 586.57-8.05 586.89-6.8 586.89-5.35L586.89-5.35Q586.89-2.65 585.49-1.25 584.09 0.15 582.24 0.15ZM616.74 0.35L616.74 0.35Q612.99 0.35 610.54-1.15 608.09-2.65 606.91-5.13 605.74-7.6 605.74-10.4L605.74-10.4Q605.74-13.05 606.71-15.7 607.69-18.35 609.56-20.53 611.44-22.7 614.14-24.03 616.84-25.35 620.34-25.35L620.34-25.35Q624.09-25.35 626.51-23.83 628.94-22.3 630.11-19.8 631.29-17.3 631.29-14.45L631.29-14.45Q631.29-11.85 630.34-9.22 629.39-6.6 627.51-4.42 625.64-2.25 622.94-0.95 620.24 0.35 616.74 0.35ZM618.09-3.9L618.09-3.9Q619.44-3.9 620.34-5.3 621.24-6.7 621.69-8.88 622.14-11.05 622.14-13.3L622.14-13.3Q622.14-15.3 621.76-17.07 621.39-18.85 620.64-19.98 619.89-21.1 618.69-21.1L618.69-21.1Q617.39-21.1 616.46-19.7 615.54-18.3 615.09-16.15 614.64-14 614.64-11.7L614.64-11.7Q614.64-9.7 615.01-7.93 615.39-6.15 616.14-5.03 616.89-3.9 618.09-3.9ZM641.64 0.2L641.64 0.2Q638.74 0.2 637.04-1.33 635.34-2.85 635.34-6.05L635.34-6.05Q635.34-7.9 635.81-10 636.29-12.1 636.74-13.75L636.74-13.75Q637.19-15.35 637.46-16.55 637.74-17.75 637.74-18.4L637.74-18.4Q637.74-19.2 637.39-19.55 637.04-19.9 636.54-19.9L636.54-19.9Q635.34-19.9 634.54-18.75L634.54-18.75 634.34-18.95Q634.39-20.65 635.44-22.08 636.49-23.5 638.14-24.35 639.79-25.2 641.49-25.2L641.49-25.2Q643.39-25.2 644.74-24.08 646.09-22.95 645.99-20.55L645.99-20.55Q645.94-19.5 645.61-17.9 645.29-16.3 644.74-14.1L644.74-14.1Q644.39-12.7 644.01-10.93 643.64-9.15 643.64-7.7L643.64-7.7Q643.64-6.6 643.99-5.95 644.34-5.3 645.14-5.3L645.14-5.3Q646.19-5.3 647.46-6.48 648.74-7.65 649.69-10.33 650.64-13 650.79-17.45L650.79-17.45Q650.94-20.85 650.34-22.4L650.34-22.4 650.34-22.65Q650.79-23.35 651.71-24 652.64-24.65 653.79-25.08 654.94-25.5 655.94-25.5L655.94-25.5Q657.54-25.5 658.66-23.95 659.79-22.4 659.64-18.55L659.64-18.55Q659.54-14.85 658.31-11.85 657.09-8.85 655.14-6.6 653.19-4.35 650.86-2.85 648.54-1.35 646.14-0.58 643.74 0.2 641.64 0.2ZM680.13 0.25L680.13 0.25Q678.38 0.25 677.08-0.9 675.78-2.05 675.78-4.65L675.78-4.65Q675.78-4.9 675.78-5.15 675.78-5.4 675.83-5.65L675.83-5.65Q674.33-2.65 672.46-1.23 670.58 0.2 668.68 0.2L668.68 0.2Q666.93 0.2 665.38-1.03 663.83-2.25 662.88-4.65 661.93-7.05 661.93-10.45L661.93-10.45Q661.93-13.95 662.91-16.7 663.88-19.45 665.48-21.35 667.08-23.25 668.98-24.23 670.88-25.2 672.68-25.2L672.68-25.2Q674.68-25.2 676.28-23.98 677.88-22.75 678.48-20.1L678.48-20.1Q678.63-20.95 678.71-21.65 678.78-22.35 678.78-22.6L678.78-22.6Q678.83-23.95 680.16-24.6 681.48-25.25 683.08-25.25L683.08-25.25Q684.48-25.25 685.73-24.7 686.98-24.15 687.43-22.85L687.43-22.85 687.53-22.55Q686.93-21.2 686.33-19.3 685.73-17.4 685.23-15.33 684.73-13.25 684.43-11.28 684.13-9.3 684.13-7.8L684.13-7.8Q684.13-6.15 684.48-5.53 684.83-4.9 685.33-4.9L685.33-4.9Q686.18-4.9 686.88-6.1L686.88-6.1 687.28-5.9Q687.28-4.2 686.18-2.8 685.08-1.4 683.43-0.58 681.78 0.25 680.13 0.25ZM671.98-6.1L671.98-6.1Q673.28-6.1 674.86-8.43 676.43-10.75 677.58-15.1L677.58-15.1Q677.68-15.55 677.78-15.98 677.88-16.4 677.93-16.8L677.93-16.8Q677.13-18.65 676.26-19.43 675.38-20.2 674.53-20.2L674.53-20.2Q673.28-20.2 672.21-18.88 671.13-17.55 670.46-15.55 669.78-13.55 669.78-11.55L669.78-11.55Q669.78-8.8 670.41-7.45 671.03-6.1 671.98-6.1ZM697.23 0.2L697.23 0.2Q695.63 0.2 694.21-0.53 692.78-1.25 691.91-2.8 691.03-4.35 691.03-6.75L691.03-6.75Q691.03-8.05 691.28-10.15 691.53-12.25 691.96-14.75 692.38-17.25 692.83-19.75L692.83-19.75Q691.83-19.7 690.91-19.55 689.98-19.4 689.08-19.2L689.08-19.2 688.98-19.55Q689.98-20.75 691.08-21.6 692.18-22.45 693.38-23L693.38-23Q694.03-26.3 694.48-28.73 694.93-31.15 694.93-31.6L694.93-31.6Q694.93-32.45 696.26-33 697.58-33.55 699.23-33.55L699.23-33.55Q700.68-33.55 701.96-33 703.23-32.45 703.68-31.15L703.68-31.15Q703.38-30.85 702.83-28.93 702.28-27 701.68-24.25L701.68-24.25Q702.63-24.2 703.63-24.15 704.63-24.1 705.68-24L705.68-24Q705.78-23.7 705.83-23.35 705.88-23 705.88-22.6L705.88-22.6Q705.88-21.85 705.66-20.98 705.43-20.1 705.13-19.4L705.13-19.4Q703.93-19.5 702.88-19.63 701.83-19.75 700.83-19.8L700.83-19.8Q700.43-17.65 700.11-15.5 699.78-13.35 699.61-11.6 699.43-9.85 699.43-8.85L699.43-8.85Q699.43-6.75 700.21-6.05 700.98-5.35 702.08-5.35L702.08-5.35Q703.08-5.35 703.88-5.75 704.68-6.15 705.03-6.7L705.03-6.7 705.53-6.55Q705.23-4.5 703.93-2.98 702.63-1.45 700.83-0.63 699.03 0.2 697.23 0.2ZM717.18-26.75L717.18-26.75Q715.18-26.75 713.9-27.98 712.63-29.2 712.63-31.05L712.63-31.05Q712.63-33.05 714.13-34.5 715.63-35.95 717.78-35.95L717.78-35.95Q719.78-35.95 721.05-34.7 722.33-33.45 722.33-31.6L722.33-31.6Q722.33-29.6 720.83-28.18 719.33-26.75 717.18-26.75ZM713.68 0.2L713.68 0.2Q711.73 0.2 710.18-1.18 708.63-2.55 708.63-5.6L708.63-5.6Q708.63-7.35 709.1-8.88 709.58-10.4 710.2-11.85 710.83-13.3 711.3-14.68 711.78-16.05 711.78-17.4L711.78-17.4Q711.78-18.6 711.38-19.13 710.98-19.65 710.43-19.65L710.43-19.65Q709.58-19.65 708.78-18.55L708.78-18.55 708.43-18.75Q708.63-20.75 709.7-22.18 710.78-23.6 712.35-24.4 713.93-25.2 715.48-25.2L715.48-25.2Q717.38-25.2 718.78-23.98 720.18-22.75 720.18-20L720.18-20Q720.18-18.35 719.7-16.53 719.23-14.7 718.6-12.9 717.98-11.1 717.5-9.55 717.03-8 717.03-6.9L717.03-6.9Q717.03-5.95 717.4-5.55 717.78-5.15 718.23-5.15L718.23-5.15Q718.68-5.15 719.1-5.43 719.53-5.7 719.73-6.05L719.73-6.05 720.08-5.95Q720.08-4.1 719.1-2.73 718.13-1.35 716.68-0.58 715.23 0.2 713.68 0.2ZM729.88 0.15L729.88 0.15Q728.03 0.15 726.53-1.33 725.03-2.8 725.03-5.45L725.03-5.45Q725.03-6.75 725.38-8.4 725.73-10.05 726.15-11.75 726.58-13.45 726.93-14.95 727.28-16.45 727.28-17.4L727.28-17.4Q727.28-18.4 726.88-18.98 726.48-19.55 725.83-19.55L725.83-19.55Q724.98-19.55 723.98-18.55L723.98-18.55 723.68-18.75Q723.63-19.55 724.03-20.65 724.43-21.75 725.25-22.78 726.08-23.8 727.38-24.5 728.68-25.2 730.48-25.2L730.48-25.2Q733.13-25.2 734.4-23.68 735.68-22.15 735.68-19.95L735.68-19.95Q735.68-19.15 735.53-18.4L735.53-18.4Q736.58-19.95 738.13-21.53 739.68-23.1 741.55-24.15 743.43-25.2 745.43-25.2L745.43-25.2Q747.78-25.2 748.63-23.7 749.48-22.2 749.48-19.95L749.48-19.95Q749.48-17.85 749.03-15.45 748.58-13.05 748.13-10.83 747.68-8.6 747.68-7.1L747.68-7.1Q747.68-5.1 748.83-5.1L748.83-5.1Q749.43-5.1 749.88-5.48 750.33-5.85 750.48-6.2L750.48-6.2 750.83-6.05Q750.83-4.2 749.8-2.8 748.78-1.4 747.23-0.63 745.68 0.15 744.08 0.15L744.08 0.15Q742.13 0.15 740.63-1.2 739.13-2.55 739.13-5.6L739.13-5.6Q739.13-7.4 739.6-9.5 740.08-11.6 740.53-13.55 740.98-15.5 740.98-16.75L740.98-16.75Q740.98-17.5 740.7-17.93 740.43-18.35 739.73-18.35L739.73-18.35Q738.58-18.35 737.2-17.3 735.83-16.25 734.85-14.5 733.88-12.75 733.88-10.65L733.88-10.65Q733.88-9.3 734.2-8.05 734.53-6.8 734.53-5.35L734.53-5.35Q734.53-2.65 733.13-1.25 731.73 0.15 729.88 0.15ZM765.62 10L765.62 10Q763.17 10 761.57 8.55 759.97 7.1 759.97 4.45L759.97 4.45Q759.97 1.6 761.97-2.25L761.97-2.25Q761.62-2.15 761.27-2.1 760.92-2.05 760.57-2.05L760.57-2.05Q757.67-2.05 755.7-4.58 753.72-7.1 753.72-11.6L753.72-11.6Q753.72-15.65 755.3-18.75 756.87-21.85 759.32-23.6 761.77-25.35 764.42-25.35L764.42-25.35Q766.27-25.35 767.77-24.43 769.27-23.5 770.22-21.45L770.22-21.45Q770.27-21.95 770.27-22.35 770.27-22.75 770.27-23.1L770.27-23.1Q770.27-23.95 771.57-24.5 772.87-25.05 774.47-25.05L774.47-25.05Q775.92-25.05 777.17-24.5 778.42-23.95 778.82-22.65L778.82-22.65 778.92-22.35Q778.47-21.95 778.15-19.75 777.82-17.55 777.37-13.65L777.37-13.65Q777.07-11.2 776.62-8.08 776.17-4.95 775.4-1.78 774.62 1.4 773.37 4.08 772.12 6.75 770.22 8.38 768.32 10 765.62 10ZM763.97-7.8L763.97-7.8Q765.42-7.8 767.2-10.18 768.97-12.55 770.02-17L770.02-17Q769.12-18.95 768.2-19.78 767.27-20.6 766.32-20.6L766.32-20.6Q765.07-20.6 763.97-19.35 762.87-18.1 762.2-16.18 761.52-14.25 761.52-12.2L761.52-12.2Q761.52-10.1 762.22-8.95 762.92-7.8 763.97-7.8ZM763.37 4.25L763.37 4.25Q765.07 4.25 766.85 0.93 768.62-2.4 769.32-8.45L769.32-8.45Q765.52-3.3 764.05-0.53 762.57 2.25 762.57 3.4L762.57 3.4Q762.57 4.25 763.37 4.25ZM801.47 0.2L801.47 0.2Q799.92 0.2 798.74-0.6 797.57-1.4 797.62-3L797.62-3Q797.72-5.8 798.04-9.2 798.37-12.6 798.82-16.13 799.27-19.65 799.74-22.9 800.22-26.15 800.62-28.7L800.62-28.7Q799.72-28.8 798.87-28.85 798.02-28.9 797.32-28.9L797.32-28.9Q795.22-28.9 793.54-28.5 791.87-28.1 790.72-27.1L790.72-27.1Q790.72-30.25 791.24-32.23 791.77-34.2 793.19-35.1 794.62-36 797.37-36L797.37-36Q799.37-36 801.84-35.68 804.32-35.35 806.87-35 809.42-34.65 811.62-34.65L811.62-34.65Q813.42-34.65 814.84-35 816.27-35.35 817.02-36.25L817.02-36.25Q818.12-35.9 818.72-34.73 819.32-33.55 819.32-32.15L819.32-32.15Q819.32-30.9 818.77-29.73 818.22-28.55 817.02-27.78 815.82-27 813.77-27L813.77-27Q812.82-27 811.44-27.18 810.07-27.35 808.52-27.55L808.52-27.55Q807.97-24.55 807.39-20.38 806.82-16.2 806.44-11.4 806.07-6.6 805.97-1.65L805.97-1.65Q805.07-0.7 803.84-0.25 802.62 0.2 801.47 0.2ZM830.77 0.35L830.77 0.35Q827.02 0.35 824.57-1.15 822.12-2.65 820.94-5.13 819.77-7.6 819.77-10.4L819.77-10.4Q819.77-13.05 820.74-15.7 821.72-18.35 823.59-20.53 825.47-22.7 828.17-24.03 830.87-25.35 834.37-25.35L834.37-25.35Q838.12-25.35 840.54-23.83 842.97-22.3 844.14-19.8 845.32-17.3 845.32-14.45L845.32-14.45Q845.32-11.85 844.37-9.22 843.42-6.6 841.54-4.42 839.67-2.25 836.97-0.95 834.27 0.35 830.77 0.35ZM832.12-3.9L832.12-3.9Q833.47-3.9 834.37-5.3 835.27-6.7 835.72-8.88 836.17-11.05 836.17-13.3L836.17-13.3Q836.17-15.3 835.79-17.07 835.42-18.85 834.67-19.98 833.92-21.1 832.72-21.1L832.72-21.1Q831.42-21.1 830.49-19.7 829.57-18.3 829.12-16.15 828.67-14 828.67-11.7L828.67-11.7Q828.67-9.7 829.04-7.93 829.42-6.15 830.17-5.03 830.92-3.9 832.12-3.9ZM853.61 0.2L853.61 0.2Q851.81 0.2 850.39-1.28 848.96-2.75 848.96-5.35L848.96-5.35Q848.96-6.65 849.31-8.33 849.66-10 850.09-11.75 850.51-13.5 850.86-15.05 851.21-16.6 851.21-17.65L851.21-17.65Q851.21-18.5 850.81-19.03 850.41-19.55 849.76-19.55L849.76-19.55Q848.91-19.55 847.91-18.55L847.91-18.55 847.61-18.75Q847.56-19.55 847.96-20.65 848.36-21.75 849.26-22.78 850.16-23.8 851.61-24.5 853.06-25.2 855.06-25.2L855.06-25.2Q857.31-25.2 858.44-23.63 859.56-22.05 859.56-19.85L859.56-19.85Q859.56-19.6 859.56-19.33 859.56-19.05 859.51-18.8L859.51-18.8Q860.46-20.35 861.74-21.8 863.01-23.25 864.64-24.23 866.26-25.2 868.16-25.2L868.16-25.2Q870.61-25.2 871.56-23.63 872.51-22.05 872.51-20.05L872.51-20.05Q872.51-19.65 872.49-19.28 872.46-18.9 872.41-18.55L872.41-18.55Q873.46-20.1 874.74-21.63 876.01-23.15 877.66-24.18 879.31-25.2 881.46-25.2L881.46-25.2Q884.11-25.2 885.09-23.65 886.06-22.1 886.06-20L886.06-20Q886.06-18.15 885.61-15.78 885.16-13.4 884.71-11.1 884.26-8.8 884.26-7.2L884.26-7.2Q884.26-6.25 884.54-5.65 884.81-5.05 885.46-5.05L885.46-5.05Q886.01-5.05 886.49-5.38 886.96-5.7 887.16-6.15L887.16-6.15 887.56-6Q887.56-4.15 886.51-2.75 885.46-1.35 883.86-0.58 882.26 0.2 880.66 0.2L880.66 0.2Q878.71 0.2 877.24-1.1 875.76-2.4 875.76-5.4L875.76-5.4Q875.76-7.25 876.24-9.4 876.71-11.55 877.19-13.58 877.66-15.6 877.66-16.9L877.66-16.9Q877.66-18.75 876.36-18.75L876.36-18.75Q875.41-18.75 874.49-17.98 873.56-17.2 872.84-15.93 872.11-14.65 871.66-13.25 871.21-11.85 871.21-10.55L871.21-10.55Q871.21-9.35 871.49-7.93 871.76-6.5 871.76-5.2L871.76-5.2Q871.76-2.6 870.31-1.2 868.86 0.2 866.91 0.2L866.91 0.2Q865.11 0.2 863.69-1 862.26-2.2 862.26-4.6L862.26-4.6Q862.26-5.7 862.56-7.28 862.86-8.85 863.24-10.58 863.61-12.3 863.91-13.9 864.21-15.5 864.21-16.7L864.21-16.7Q864.21-17.65 863.94-18.2 863.66-18.75 862.86-18.75L862.86-18.75Q861.71-18.75 860.66-17.6 859.61-16.45 858.86-14.83 858.11-13.2 857.86-11.7L857.86-11.7Q857.81-11.35 857.79-11.15 857.76-10.95 857.76-10.95L857.76-10.95Q857.76-9.4 858.11-8.13 858.46-6.85 858.46-5.5L858.46-5.5Q858.46-3.05 856.99-1.43 855.51 0.2 853.61 0.2ZM895.36 0.2L895.36 0.2Q893.56 0.2 892.14-1.28 890.71-2.75 890.71-5.35L890.71-5.35Q890.71-6.65 891.06-8.33 891.41-10 891.84-11.75 892.26-13.5 892.61-15.05 892.96-16.6 892.96-17.65L892.96-17.65Q892.96-18.5 892.56-19.03 892.16-19.55 891.51-19.55L891.51-19.55Q890.66-19.55 889.66-18.55L889.66-18.55 889.36-18.75Q889.31-19.55 889.71-20.65 890.11-21.75 891.01-22.78 891.91-23.8 893.36-24.5 894.81-25.2 896.81-25.2L896.81-25.2Q899.06-25.2 900.19-23.63 901.31-22.05 901.31-19.85L901.31-19.85Q901.31-19.6 901.31-19.33 901.31-19.05 901.26-18.8L901.26-18.8Q902.21-20.35 903.49-21.8 904.76-23.25 906.39-24.23 908.01-25.2 909.91-25.2L909.91-25.2Q912.36-25.2 913.31-23.63 914.26-22.05 914.26-20.05L914.26-20.05Q914.26-19.65 914.24-19.28 914.21-18.9 914.16-18.55L914.16-18.55Q915.21-20.1 916.49-21.63 917.76-23.15 919.41-24.18 921.06-25.2 923.21-25.2L923.21-25.2Q925.86-25.2 926.84-23.65 927.81-22.1 927.81-20L927.81-20Q927.81-18.15 927.36-15.78 926.91-13.4 926.46-11.1 926.01-8.8 926.01-7.2L926.01-7.2Q926.01-6.25 926.29-5.65 926.56-5.05 927.21-5.05L927.21-5.05Q927.76-5.05 928.24-5.38 928.71-5.7 928.91-6.15L928.91-6.15 929.31-6Q929.31-4.15 928.26-2.75 927.21-1.35 925.61-0.58 924.01 0.2 922.41 0.2L922.41 0.2Q920.46 0.2 918.99-1.1 917.51-2.4 917.51-5.4L917.51-5.4Q917.51-7.25 917.99-9.4 918.46-11.55 918.94-13.58 919.41-15.6 919.41-16.9L919.41-16.9Q919.41-18.75 918.11-18.75L918.11-18.75Q917.16-18.75 916.24-17.98 915.31-17.2 914.59-15.93 913.86-14.65 913.41-13.25 912.96-11.85 912.96-10.55L912.96-10.55Q912.96-9.35 913.24-7.93 913.51-6.5 913.51-5.2L913.51-5.2Q913.51-2.6 912.06-1.2 910.61 0.2 908.66 0.2L908.66 0.2Q906.86 0.2 905.44-1 904.01-2.2 904.01-4.6L904.01-4.6Q904.01-5.7 904.31-7.28 904.61-8.85 904.99-10.58 905.36-12.3 905.66-13.9 905.96-15.5 905.96-16.7L905.96-16.7Q905.96-17.65 905.69-18.2 905.41-18.75 904.61-18.75L904.61-18.75Q903.46-18.75 902.41-17.6 901.36-16.45 900.61-14.83 899.86-13.2 899.61-11.7L899.61-11.7Q899.56-11.35 899.54-11.15 899.51-10.95 899.51-10.95L899.51-10.95Q899.51-9.4 899.86-8.13 900.21-6.85 900.21-5.5L900.21-5.5Q900.21-3.05 898.74-1.43 897.26 0.2 895.36 0.2ZM942.61 0.35L942.61 0.35Q938.86 0.35 936.41-1.15 933.96-2.65 932.78-5.13 931.61-7.6 931.61-10.4L931.61-10.4Q931.61-13.05 932.58-15.7 933.56-18.35 935.43-20.53 937.31-22.7 940.01-24.03 942.71-25.35 946.21-25.35L946.21-25.35Q949.96-25.35 952.38-23.83 954.81-22.3 955.98-19.8 957.16-17.3 957.16-14.45L957.16-14.45Q957.16-11.85 956.21-9.22 955.26-6.6 953.38-4.42 951.51-2.25 948.81-0.95 946.11 0.35 942.61 0.35ZM943.96-3.9L943.96-3.9Q945.31-3.9 946.21-5.3 947.11-6.7 947.56-8.88 948.01-11.05 948.01-13.3L948.01-13.3Q948.01-15.3 947.63-17.07 947.26-18.85 946.51-19.98 945.76-21.1 944.56-21.1L944.56-21.1Q943.26-21.1 942.33-19.7 941.41-18.3 940.96-16.15 940.51-14 940.51-11.7L940.51-11.7Q940.51-9.7 940.88-7.93 941.26-6.15 942.01-5.03 942.76-3.9 943.96-3.9ZM965.91 0.2L965.91 0.2Q964.11 0.2 962.71-1.28 961.31-2.75 961.31-5.45L961.31-5.45Q961.31-6.75 961.61-8.4 961.91-10.05 962.31-11.78 962.71-13.5 963.01-15.03 963.31-16.55 963.31-17.55L963.31-17.55Q963.31-18.6 962.93-19.23 962.56-19.85 961.96-19.85L961.96-19.85Q961.01-19.85 960.01-18.55L960.01-18.55 959.71-18.75Q959.66-19.55 960.06-20.65 960.46-21.75 961.31-22.78 962.16-23.8 963.48-24.5 964.81-25.2 966.61-25.2L966.61-25.2Q969.26-25.2 970.46-23.68 971.66-22.15 971.66-20L971.66-20Q971.66-19.65 971.63-19.28 971.61-18.9 971.56-18.55L971.56-18.55Q973.36-21.8 975.33-23.53 977.31-25.25 979.01-25.25L979.01-25.25Q980.61-25.25 981.36-24 982.11-22.75 982.11-21L982.11-21Q982.11-19.4 981.48-17.75 980.86-16.1 979.63-15.03 978.41-13.95 976.66-14L976.66-14 976.46-14.1Q976.41-15.4 975.61-16.15 974.81-16.9 973.81-16.9L973.81-16.9Q972.46-16.9 971.28-15.55 970.11-14.2 970.11-11.65L970.11-11.65Q970.11-10.1 970.46-8.3 970.81-6.5 970.81-5.25L970.81-5.25Q970.81-3.75 970.11-2.5 969.41-1.25 968.31-0.53 967.21 0.2 965.91 0.2ZM994.5 0.35L994.5 0.35Q990.75 0.35 988.3-1.15 985.85-2.65 984.68-5.13 983.5-7.6 983.5-10.4L983.5-10.4Q983.5-13.05 984.48-15.7 985.45-18.35 987.33-20.53 989.2-22.7 991.9-24.03 994.6-25.35 998.1-25.35L998.1-25.35Q1001.85-25.35 1004.28-23.83 1006.7-22.3 1007.88-19.8 1009.05-17.3 1009.05-14.45L1009.05-14.45Q1009.05-11.85 1008.1-9.22 1007.15-6.6 1005.28-4.42 1003.4-2.25 1000.7-0.95 998 0.35 994.5 0.35ZM995.85-3.9L995.85-3.9Q997.2-3.9 998.1-5.3 999-6.7 999.45-8.88 999.9-11.05 999.9-13.3L999.9-13.3Q999.9-15.3 999.53-17.07 999.15-18.85 998.4-19.98 997.65-21.1 996.45-21.1L996.45-21.1Q995.15-21.1 994.23-19.7 993.3-18.3 992.85-16.15 992.4-14 992.4-11.7L992.4-11.7Q992.4-9.7 992.78-7.93 993.15-6.15 993.9-5.03 994.65-3.9 995.85-3.9ZM1019 0.2L1019 0.2Q1016.4 0.2 1014.78-1.33 1013.15-2.85 1013.15-6.05L1013.15-6.05Q1013.15-7.65 1013.53-9.43 1013.9-11.2 1014.38-12.93 1014.85-14.65 1015.2-16.05 1015.55-17.45 1015.55-18.3L1015.55-18.3Q1015.55-19.15 1015.2-19.53 1014.85-19.9 1014.35-19.9L1014.35-19.9Q1013.85-19.9 1013.35-19.58 1012.85-19.25 1012.5-18.6L1012.5-18.6 1012.1-18.75Q1012.2-20.8 1013.25-22.25 1014.3-23.7 1015.88-24.45 1017.45-25.2 1019.05-25.2L1019.05-25.2Q1020.35-25.2 1021.55-24.68 1022.75-24.15 1023.48-23.08 1024.2-22 1024.15-20.35L1024.15-20.35Q1024.1-19.25 1023.75-17.65 1023.4-16.05 1022.93-14.23 1022.45-12.4 1022.1-10.7 1021.75-9 1021.75-7.7L1021.75-7.7Q1021.75-6.6 1022.08-5.95 1022.4-5.3 1023.2-5.3L1023.2-5.3Q1024.05-5.3 1025.45-6.2 1026.85-7.1 1028.25-8.8L1028.25-8.8Q1027.95-11.6 1027.95-13.75L1027.95-13.75Q1027.95-19.25 1029.58-21.7 1031.2-24.15 1033.65-24.15L1033.65-24.15Q1035.45-24.15 1036.1-22.95 1036.75-21.75 1036.75-19.75L1036.75-19.75Q1036.75-16.8 1035.75-14.2 1034.75-11.6 1033.4-10.05L1033.4-10.05Q1033.5-7.8 1034.33-6.55 1035.15-5.3 1036.3-5.3L1036.3-5.3Q1037.45-5.3 1038.68-6.6 1039.9-7.9 1040.8-10.6 1041.7-13.3 1041.85-17.45L1041.85-17.45Q1041.9-20.8 1041.4-22.35L1041.4-22.35 1041.4-22.6Q1042.1-23.75 1043.63-24.58 1045.15-25.4 1046.7-25.4L1046.7-25.4Q1047.8-25.4 1048.73-24.78 1049.65-24.15 1050.2-22.48 1050.75-20.8 1050.6-17.65L1050.6-17.65Q1050.45-13.25 1049.15-9.93 1047.85-6.6 1045.83-4.35 1043.8-2.1 1041.45-0.95 1039.1 0.2 1036.8 0.2L1036.8 0.2Q1034.2 0.2 1032.05-1.23 1029.9-2.65 1028.8-5.25L1028.8-5.25Q1026.55-2.9 1024.18-1.35 1021.8 0.2 1019 0.2Z" opacity="1" transform="matrix(1,0,0,1,0,0)" fill="#375a82" class="slogan-text-1" data-fill-palette-color="secondary" id="text-1"></path></svg></g></svg></g></svg></g></svg></g></svg></g></svg></g></svg></g><g><path d="M0 123.6c0-68.262 55.338-123.6 123.6-123.6 53.051 0 98.296 33.423 115.826 80.362l-2.478 0c-17.417-45.631-61.597-78.044-113.348-78.044-66.982 0-121.282 54.3-121.282 121.282 0 66.982 54.3 121.282 121.282 121.282 51.75 0 95.931-32.412 113.348-78.044h2.478c-17.53 46.938-62.775 80.362-115.826 80.362-68.262 0-123.6-55.338-123.6-123.6z" fill="#375a82" stroke="transparent" data-fill-palette-color="tertiary"></path></g></svg></g><defs></defs></svg><rect width="395.52" height="247.2" fill="none" stroke="none" visibility="hidden"></rect></g></svg></g></svg>